<svg xmlns="http://www.w3.org/2000/svg" width="740.55" height="254.85" viewBox="0 0 740.55 254.85"><defs><style>.cls-1{fill:none;}.cls-2{fill:#111;}</style></defs><title>tide</title><g id="Layer_2" data-name="Layer 2"><path d="M338.64,604.91a2.1,2.1,0,0,1,.3-1.12,1,1,0,0,1,.86-.48h12a1,1,0,0,1,.86.48,2.09,2.09,0,0,1,.3,1.12,2.07,2.07,0,0,1-.31,1.15,1,1,0,0,1-.85.48h-4.14v16.33a1,1,0,0,1-.55.85,2.84,2.84,0,0,1-2.59,0,1,1,0,0,1-.54-.85V606.54H339.8a1,1,0,0,1-.85-.47A2,2,0,0,1,338.64,604.91Z" transform="translate(-108 -375.76)"/><path d="M354.55,618.85v-3.18a5,5,0,0,1,1.59-3.67,5.48,5.48,0,0,1,7.56-.07,4.85,4.85,0,0,1,1.57,3.69,3.63,3.63,0,0,1-.18,1.27,1.19,1.19,0,0,1-.6.68,2.86,2.86,0,0,1-.75.25,5.94,5.94,0,0,1-.94.06h-6.41v1a3.31,3.31,0,0,0,1.21,2.68,4.68,4.68,0,0,0,3.1,1,4.62,4.62,0,0,0,1.69-.28,4.92,4.92,0,0,0,1.11-.57,1.17,1.17,0,0,1,.61-.28.7.7,0,0,1,.55.3.94.94,0,0,1,.24.58q0,.6-1.22,1.23a6.5,6.5,0,0,1-3,.64,6.43,6.43,0,0,1-4.39-1.49A4.94,4.94,0,0,1,354.55,618.85Zm1.84-2.33h5.67a2.36,2.36,0,0,0,1.13-.18.87.87,0,0,0,.28-.78,3.51,3.51,0,0,0-1-2.48,3.34,3.34,0,0,0-2.54-1.07,3.45,3.45,0,0,0-2.51,1,3.27,3.27,0,0,0-1,2.42Z" transform="translate(-108 -375.76)"/><path d="M368,623.3v-12a.6.6,0,0,1,.26-.48,1,1,0,0,1,.65-.2,1,1,0,0,1,.62.2.6.6,0,0,1,.26.49v1.41a4.48,4.48,0,0,1,1.5-1.61,4.06,4.06,0,0,1,2.3-.66h1a.67.67,0,0,1,.51.26.92.92,0,0,1,0,1.21.67.67,0,0,1-.51.26h-1a3.57,3.57,0,0,0-2.61,1.15,4.06,4.06,0,0,0-1.13,3v7a.66.66,0,0,1-.27.51,1,1,0,0,1-.67.23,1,1,0,0,1-.64-.23A.66.66,0,0,1,368,623.3Z" transform="translate(-108 -375.76)"/><path d="M377.43,623.3v-12a.6.6,0,0,1,.26-.48,1,1,0,0,1,.65-.2,1,1,0,0,1,.62.2.61.61,0,0,1,.26.49v1.32a4.19,4.19,0,0,1,3.77-2.18,4,4,0,0,1,2.44.79,4.62,4.62,0,0,1,1.59,2.07,5.22,5.22,0,0,1,1.87-2.13,4.53,4.53,0,0,1,5.78.72,5.27,5.27,0,0,1,1.42,3.86v7.54a.66.66,0,0,1-.27.51,1,1,0,0,1-.67.23,1,1,0,0,1-.64-.23.66.66,0,0,1-.27-.51v-7.52a3.52,3.52,0,0,0-1-2.63,3.12,3.12,0,0,0-2.25-1,3.22,3.22,0,0,0-2.31,1,3.33,3.33,0,0,0-1,2.5v7.67q0,.71-.94.71t-.91-.71v-7.64a3.5,3.5,0,0,0-1-2.5,3,3,0,0,0-2.28-1,3.25,3.25,0,0,0-2.34,1,3.47,3.47,0,0,0-1,2.62v7.52a.65.65,0,0,1-.28.51,1,1,0,0,1-.65.23,1,1,0,0,1-.64-.23A.66.66,0,0,1,377.43,623.3Z" transform="translate(-108 -375.76)"/><path d="M399.55,606.3a1.12,1.12,0,0,1-.37-.84,1.08,1.08,0,0,1,.37-.82,1.29,1.29,0,0,1,.91-.34,1.2,1.2,0,0,1,.86.34,1.1,1.1,0,0,1,.35.82,1.14,1.14,0,0,1-.35.84,1.17,1.17,0,0,1-.86.35A1.25,1.25,0,0,1,399.55,606.3Zm0,17v-12a.6.6,0,0,1,.26-.48,1,1,0,0,1,.65-.2,1.09,1.09,0,0,1,.67.2.59.59,0,0,1,.27.48v12a.65.65,0,0,1-.28.51,1,1,0,0,1-.65.23,1,1,0,0,1-.64-.23A.66.66,0,0,1,399.55,623.3Z" transform="translate(-108 -375.76)"/><path d="M405,623.3v-12a.58.58,0,0,1,.26-.5,1.09,1.09,0,0,1,.65-.18.94.94,0,0,1,.6.2.61.61,0,0,1,.26.49v1.32a4.09,4.09,0,0,1,1.47-1.55,4.24,4.24,0,0,1,2.33-.63,4.77,4.77,0,0,1,3.54,1.56,5.21,5.21,0,0,1,1.5,3.74v7.54a.62.62,0,0,1-.28.54,1.1,1.1,0,0,1-.65.2,1.07,1.07,0,0,1-.62-.2.62.62,0,0,1-.28-.54v-7.52a3.52,3.52,0,0,0-1-2.49,3.33,3.33,0,0,0-2.5-1.1,3.29,3.29,0,0,0-2.35,1,3.46,3.46,0,0,0-1,2.6v7.52a.65.65,0,0,1-.28.51,1,1,0,0,1-.65.23.94.94,0,0,1-.65-.23A.67.67,0,0,1,405,623.3Z" transform="translate(-108 -375.76)"/><path d="M418.09,620.49a3.18,3.18,0,0,1,1.69-3.1,11,11,0,0,1,4.92-.87h1.45v-.67a4.39,4.39,0,0,0-.82-2.66,2.92,2.92,0,0,0-2.52-1.13,5.07,5.07,0,0,0-2.06.4,10.4,10.4,0,0,1-1,.4.61.61,0,0,1-.54-.31,1.21,1.21,0,0,1-.2-.67q0-.54,1.22-1a7.4,7.4,0,0,1,2.61-.45,4.69,4.69,0,0,1,3.9,1.55,6.1,6.1,0,0,1,1.23,3.93v7.37a.66.66,0,0,1-.26.52,1,1,0,0,1-.65.21.89.89,0,0,1-.61-.21.67.67,0,0,1-.24-.52v-1.25a5.59,5.59,0,0,1-4.28,2.18,4,4,0,0,1-2.78-1A3.52,3.52,0,0,1,418.09,620.49Zm1.84-.17a2.2,2.2,0,0,0,.68,1.77,2.65,2.65,0,0,0,1.79.58,3.94,3.94,0,0,0,2.54-1,2.7,2.7,0,0,0,1.21-2v-1.81H425A18.1,18.1,0,0,0,423,618a8.74,8.74,0,0,0-1.55.31,2.22,2.22,0,0,0-1.16.74A2.06,2.06,0,0,0,419.93,620.32Z" transform="translate(-108 -375.76)"/><path d="M431.67,623.3V603.08a.59.59,0,0,1,.26-.48,1,1,0,0,1,.65-.2,1.1,1.1,0,0,1,.67.2.58.58,0,0,1,.27.48V623.3a.66.66,0,0,1-.27.51,1,1,0,0,1-.67.23,1,1,0,0,1-.64-.23A.66.66,0,0,1,431.67,623.3Z" transform="translate(-108 -375.76)"/><path d="M442.9,622.87V604.44a.91.91,0,0,1,.54-.85,3.14,3.14,0,0,1,2.61,0,.91.91,0,0,1,.54.85v18.43a1,1,0,0,1-.55.85,2.85,2.85,0,0,1-2.59,0A1,1,0,0,1,442.9,622.87Z" transform="translate(-108 -375.76)"/><path d="M450.07,623.3v-12a.58.58,0,0,1,.26-.5,1.09,1.09,0,0,1,.65-.18.94.94,0,0,1,.6.2.61.61,0,0,1,.26.49v1.32a4.09,4.09,0,0,1,1.47-1.55,4.24,4.24,0,0,1,2.33-.63,4.77,4.77,0,0,1,3.54,1.56,5.21,5.21,0,0,1,1.5,3.74v7.54a.62.62,0,0,1-.28.54,1.1,1.1,0,0,1-.65.2,1.07,1.07,0,0,1-.62-.2.62.62,0,0,1-.28-.54v-7.52a3.52,3.52,0,0,0-1-2.49,3.33,3.33,0,0,0-2.5-1.1,3.29,3.29,0,0,0-2.35,1,3.46,3.46,0,0,0-1,2.6v7.52a.65.65,0,0,1-.28.51,1,1,0,0,1-.65.23.94.94,0,0,1-.65-.23A.67.67,0,0,1,450.07,623.3Z" transform="translate(-108 -375.76)"/><path d="M464.08,619.87V605a.58.58,0,0,1,.28-.48,1.07,1.07,0,0,1,.62-.2,1.11,1.11,0,0,1,.65.2.58.58,0,0,1,.28.48v5.68h3.66a.57.57,0,0,1,.47.23.91.91,0,0,1,0,1.1.57.57,0,0,1-.47.23h-3.66v7.65a2.59,2.59,0,0,0,.58,1.93,3,3,0,0,0,2.06.55h.79a.81.81,0,0,1,.61.25.84.84,0,0,1,.24.6.88.88,0,0,1-.24.62.79.79,0,0,1-.61.26h-.79Q464.08,624,464.08,619.87Z" transform="translate(-108 -375.76)"/><path d="M471.79,618.85v-3.18a5,5,0,0,1,1.59-3.67,5.48,5.48,0,0,1,7.56-.07,4.85,4.85,0,0,1,1.57,3.69,3.63,3.63,0,0,1-.18,1.27,1.19,1.19,0,0,1-.6.68,2.86,2.86,0,0,1-.75.25,5.94,5.94,0,0,1-.94.06h-6.41v1a3.31,3.31,0,0,0,1.21,2.68,4.68,4.68,0,0,0,3.1,1,4.62,4.62,0,0,0,1.69-.28,4.92,4.92,0,0,0,1.11-.57,1.17,1.17,0,0,1,.61-.28.7.7,0,0,1,.55.3.94.94,0,0,1,.24.58q0,.6-1.22,1.23a6.5,6.5,0,0,1-3,.64,6.43,6.43,0,0,1-4.39-1.49A4.94,4.94,0,0,1,471.79,618.85Zm1.84-2.33h5.67a2.36,2.36,0,0,0,1.13-.18.87.87,0,0,0,.28-.78,3.51,3.51,0,0,0-1-2.48,3.34,3.34,0,0,0-2.54-1.07,3.45,3.45,0,0,0-2.51,1,3.27,3.27,0,0,0-1,2.42Z" transform="translate(-108 -375.76)"/><path d="M484.21,626.84a3.25,3.25,0,0,1,2.41-3.09,2,2,0,0,1-1.56-1.94,2.28,2.28,0,0,1,1.42-2,4.42,4.42,0,0,1-1.56-3.58v-1.08a4.46,4.46,0,0,1,1.35-3.37,5.38,5.38,0,0,1,6.85-.12,4.45,4.45,0,0,1,1-1.29,1.61,1.61,0,0,1,1-.48.84.84,0,0,1,.62.23.71.71,0,0,1,.23.51.58.58,0,0,1-.48.62,2.32,2.32,0,0,0-1.59,1.2,4.32,4.32,0,0,1,.79,2.67v1.08a4.5,4.5,0,0,1-1.39,3.38,4.91,4.91,0,0,1-3.54,1.34,5.13,5.13,0,0,1-2.18-.47c-.59.32-.88.68-.88,1.1a1,1,0,0,0,.65.91,5.43,5.43,0,0,0,1.62.44l2.13.28a14.39,14.39,0,0,1,2.13.43,3.31,3.31,0,0,1,1.63,1,2.94,2.94,0,0,1,.65,2,3.4,3.4,0,0,1-1.53,3,7,7,0,0,1-4,1,7.62,7.62,0,0,1-4.15-1A3.13,3.13,0,0,1,484.21,626.84Zm1.79-.17a2.16,2.16,0,0,0,1.06,1.87,5.13,5.13,0,0,0,2.88.71,4.78,4.78,0,0,0,2.79-.71,2.22,2.22,0,0,0,1-1.9,1.76,1.76,0,0,0-.28-1,2.07,2.07,0,0,0-.67-.65,4.11,4.11,0,0,0-1-.4,7,7,0,0,0-1.11-.22l-1.19-.12-1-.1Q486,624.94,486,626.67Zm.71-10.52a3.52,3.52,0,0,0,.84,2.43,2.89,2.89,0,0,0,2.28.94,2.83,2.83,0,0,0,2.23-.94,3.48,3.48,0,0,0,.84-2.4V615.1a3.39,3.39,0,0,0-.84-2.36,3.2,3.2,0,0,0-4.51,0,3.39,3.39,0,0,0-.84,2.36Z" transform="translate(-108 -375.76)"/><path d="M498.1,623.3v-12a.6.6,0,0,1,.26-.48,1,1,0,0,1,.65-.2,1,1,0,0,1,.62.2.6.6,0,0,1,.26.49v1.41a4.48,4.48,0,0,1,1.5-1.61,4.06,4.06,0,0,1,2.3-.66h1a.67.67,0,0,1,.51.26.92.92,0,0,1,0,1.21.67.67,0,0,1-.51.26h-1a3.57,3.57,0,0,0-2.61,1.15,4.06,4.06,0,0,0-1.13,3v7a.66.66,0,0,1-.27.51,1,1,0,0,1-.67.23,1,1,0,0,1-.64-.23A.66.66,0,0,1,498.1,623.3Z" transform="translate(-108 -375.76)"/><path d="M506.55,620.49a3.18,3.18,0,0,1,1.69-3.1,11,11,0,0,1,4.92-.87h1.45v-.67a4.39,4.39,0,0,0-.82-2.66,2.92,2.92,0,0,0-2.52-1.13,5.07,5.07,0,0,0-2.06.4,10.4,10.4,0,0,1-1,.4.61.61,0,0,1-.54-.31,1.21,1.21,0,0,1-.2-.67q0-.54,1.22-1a7.4,7.4,0,0,1,2.61-.45,4.69,4.69,0,0,1,3.9,1.55,6.1,6.1,0,0,1,1.23,3.93v7.37a.66.66,0,0,1-.26.52,1,1,0,0,1-.65.21.89.89,0,0,1-.61-.21.67.67,0,0,1-.24-.52v-1.25a5.59,5.59,0,0,1-4.28,2.18,4,4,0,0,1-2.78-1A3.52,3.52,0,0,1,506.55,620.49Zm1.84-.17a2.2,2.2,0,0,0,.68,1.77,2.65,2.65,0,0,0,1.79.58,3.94,3.94,0,0,0,2.54-1,2.7,2.7,0,0,0,1.21-2v-1.81h-1.19a18.1,18.1,0,0,0-1.91.08,8.74,8.74,0,0,0-1.55.31,2.22,2.22,0,0,0-1.16.74A2.06,2.06,0,0,0,508.39,620.32Z" transform="translate(-108 -375.76)"/><path d="M519.85,619.87V605a.58.58,0,0,1,.28-.48,1.07,1.07,0,0,1,.62-.2,1.11,1.11,0,0,1,.65.2.58.58,0,0,1,.28.48v5.68h3.66a.57.57,0,0,1,.47.23.91.91,0,0,1,0,1.1.57.57,0,0,1-.47.23h-3.66v7.65a2.59,2.59,0,0,0,.58,1.93,3,3,0,0,0,2.06.55h.79a.81.81,0,0,1,.61.25.84.84,0,0,1,.24.6.88.88,0,0,1-.24.62.79.79,0,0,1-.61.26h-.79Q519.85,624,519.85,619.87Z" transform="translate(-108 -375.76)"/><path d="M527.56,618.85v-3.18a5,5,0,0,1,1.59-3.67,5.48,5.48,0,0,1,7.56-.07,4.85,4.85,0,0,1,1.57,3.69,3.63,3.63,0,0,1-.18,1.27,1.19,1.19,0,0,1-.6.68,2.86,2.86,0,0,1-.75.25,5.93,5.93,0,0,1-.93.06h-6.41v1a3.31,3.31,0,0,0,1.21,2.68,4.68,4.68,0,0,0,3.1,1,4.62,4.62,0,0,0,1.69-.28,5,5,0,0,0,1.11-.57,1.16,1.16,0,0,1,.61-.28.7.7,0,0,1,.55.3.94.94,0,0,1,.24.58q0,.6-1.22,1.23a6.51,6.51,0,0,1-3,.64,6.43,6.43,0,0,1-4.39-1.49A4.94,4.94,0,0,1,527.56,618.85Zm1.84-2.33h5.67a2.36,2.36,0,0,0,1.13-.18.87.87,0,0,0,.28-.78,3.52,3.52,0,0,0-1-2.48,3.34,3.34,0,0,0-2.54-1.07,3.45,3.45,0,0,0-2.51,1,3.27,3.27,0,0,0-1,2.42Z" transform="translate(-108 -375.76)"/><path d="M540.55,618.85v-3.09A5.23,5.23,0,0,1,542,612a4.79,4.79,0,0,1,3.59-1.56,4.18,4.18,0,0,1,3.74,2.18v-9.52a.58.58,0,0,1,.28-.48,1.16,1.16,0,0,1,.68-.2,1,1,0,0,1,.64.2.6.6,0,0,1,.24.48V623.3a.67.67,0,0,1-.25.51.95.95,0,0,1-1.23,0,.67.67,0,0,1-.27-.52V622a4,4,0,0,1-1.55,1.56,4.42,4.42,0,0,1-2.34.65,4.64,4.64,0,0,1-3.52-1.63A5.38,5.38,0,0,1,540.55,618.85Zm1.84,0a3.63,3.63,0,0,0,1,2.54,3.26,3.26,0,0,0,2.47,1.13,3.37,3.37,0,0,0,2.41-1,2.76,2.76,0,0,0,1-1.78v-3.95a3.42,3.42,0,0,0-1-2.59,3.39,3.39,0,0,0-4.89.11,3.5,3.5,0,0,0-1,2.48Z" transform="translate(-108 -375.76)"/><path d="M560.37,622.9V604.44a1,1,0,0,1,.45-.79,1.88,1.88,0,0,1,1.16-.34h5a7.19,7.19,0,0,1,4.85,1.56q1.81,1.56,1.81,4.93v7.74q0,3.37-1.81,4.93A7.18,7.18,0,0,1,567,624h-5a1.88,1.88,0,0,1-1.16-.34A1,1,0,0,1,560.37,622.9Zm3.69-2.1H567q3,0,3-3.26V609.8q0-3.26-3-3.26h-2.95Z" transform="translate(-108 -375.76)"/><path d="M576.39,618.85v-3.18A5,5,0,0,1,578,612a5.48,5.48,0,0,1,7.56-.07,4.85,4.85,0,0,1,1.57,3.69,3.64,3.64,0,0,1-.18,1.27,1.19,1.19,0,0,1-.59.68,2.86,2.86,0,0,1-.75.25,6,6,0,0,1-.94.06h-6.41v1a3.31,3.31,0,0,0,1.21,2.68,4.68,4.68,0,0,0,3.1,1,4.62,4.62,0,0,0,1.69-.28,4.88,4.88,0,0,0,1.1-.57,1.17,1.17,0,0,1,.61-.28.7.7,0,0,1,.55.3.93.93,0,0,1,.24.58q0,.6-1.22,1.23a7.35,7.35,0,0,1-7.43-.85A4.94,4.94,0,0,1,576.39,618.85Zm1.84-2.33h5.67a2.36,2.36,0,0,0,1.14-.18.87.87,0,0,0,.28-.78,3.51,3.51,0,0,0-1-2.48,3.33,3.33,0,0,0-2.54-1.07,3.45,3.45,0,0,0-2.51,1,3.27,3.27,0,0,0-1,2.42Z" transform="translate(-108 -375.76)"/><path d="M588.52,611.42a.73.73,0,0,1,.35-.6,1.27,1.27,0,0,1,.75-.25.66.66,0,0,1,.68.42l3.74,10.21,3.74-10.09q.23-.54.65-.54a1.38,1.38,0,0,1,.74.25.7.7,0,0,1,.4.57,1,1,0,0,1-.11.45l-4.56,12q-.17.45-.85.45t-.85-.45l-4.56-12A.74.74,0,0,1,588.52,611.42Z" transform="translate(-108 -375.76)"/><path d="M601.28,618.85v-3.18a5,5,0,0,1,1.59-3.67,5.48,5.48,0,0,1,7.56-.07,4.85,4.85,0,0,1,1.57,3.69,3.64,3.64,0,0,1-.18,1.27,1.19,1.19,0,0,1-.59.68,2.86,2.86,0,0,1-.75.25,6,6,0,0,1-.94.06h-6.41v1a3.31,3.31,0,0,0,1.21,2.68,4.68,4.68,0,0,0,3.1,1,4.62,4.62,0,0,0,1.69-.28,4.88,4.88,0,0,0,1.1-.57,1.17,1.17,0,0,1,.61-.28.7.7,0,0,1,.55.3.93.93,0,0,1,.24.58q0,.6-1.22,1.23a7.35,7.35,0,0,1-7.43-.85A4.94,4.94,0,0,1,601.28,618.85Zm1.84-2.33h5.67a2.36,2.36,0,0,0,1.14-.18.87.87,0,0,0,.28-.78,3.51,3.51,0,0,0-1-2.48,3.33,3.33,0,0,0-2.54-1.07,3.45,3.45,0,0,0-2.51,1,3.27,3.27,0,0,0-1,2.42Z" transform="translate(-108 -375.76)"/><path d="M615,623.3V603.08a.59.59,0,0,1,.26-.48,1,1,0,0,1,.65-.2,1.1,1.1,0,0,1,.67.2.58.58,0,0,1,.27.48V623.3a.66.66,0,0,1-.27.51,1,1,0,0,1-.67.23,1,1,0,0,1-.64-.23A.66.66,0,0,1,615,623.3Z" transform="translate(-108 -375.76)"/><path d="M620.11,618.85v-3.09A5.08,5.08,0,0,1,621.7,612a5.17,5.17,0,0,1,3.77-1.57,5.3,5.3,0,0,1,3.8,1.56,5,5,0,0,1,1.62,3.74v3.09a5.39,5.39,0,0,1-10.78,0Zm1.84,0a3.64,3.64,0,0,0,1,2.55,3.27,3.27,0,0,0,2.48,1.11,3.34,3.34,0,0,0,2.52-1.11,3.62,3.62,0,0,0,1-2.55v-3.07a3.48,3.48,0,0,0-1.06-2.48,3.38,3.38,0,0,0-2.51-1.1,3.29,3.29,0,0,0-2.48,1.1,3.53,3.53,0,0,0-1,2.48Z" transform="translate(-108 -375.76)"/><path d="M633.92,629.9V611.3a.6.6,0,0,1,.26-.48,1,1,0,0,1,.65-.2,1,1,0,0,1,.62.2.61.61,0,0,1,.25.49v1.32a4.34,4.34,0,0,1,1.5-1.55,4.19,4.19,0,0,1,2.3-.63,4.83,4.83,0,0,1,3.6,1.56,5.21,5.21,0,0,1,1.5,3.74v3.09a5.35,5.35,0,0,1-1.52,3.76,4.66,4.66,0,0,1-3.5,1.63,4.29,4.29,0,0,1-2.3-.65,4.07,4.07,0,0,1-1.53-1.56v7.88a.64.64,0,0,1-.27.48,1,1,0,0,1-.67.23,1,1,0,0,1-.64-.23A.64.64,0,0,1,633.92,629.9Zm1.84-10.19a2.75,2.75,0,0,0,1.06,1.78,3.42,3.42,0,0,0,2.42,1,3.28,3.28,0,0,0,2.45-1.13,3.61,3.61,0,0,0,1.06-2.54v-3.07a3.48,3.48,0,0,0-1.06-2.48,3.4,3.4,0,0,0-4.91-.11,3.42,3.42,0,0,0-1,2.59Z" transform="translate(-108 -375.76)"/><path d="M647.64,623.3v-12a.6.6,0,0,1,.26-.48,1,1,0,0,1,.65-.2,1,1,0,0,1,.62.2.61.61,0,0,1,.25.49v1.32a4.19,4.19,0,0,1,3.77-2.18,4,4,0,0,1,2.44.79,4.62,4.62,0,0,1,1.59,2.07,5.23,5.23,0,0,1,1.87-2.13,4.53,4.53,0,0,1,5.78.72,5.26,5.26,0,0,1,1.42,3.86v7.54a.66.66,0,0,1-.27.51,1,1,0,0,1-.67.23,1,1,0,0,1-.64-.23.66.66,0,0,1-.27-.51v-7.52a3.52,3.52,0,0,0-1-2.63,3.12,3.12,0,0,0-2.25-1,3.22,3.22,0,0,0-2.31,1,3.33,3.33,0,0,0-1,2.5v7.67q0,.71-.93.71t-.91-.71v-7.64a3.5,3.5,0,0,0-1-2.5,3,3,0,0,0-2.28-1,3.25,3.25,0,0,0-2.34,1,3.47,3.47,0,0,0-1,2.62v7.52a.65.65,0,0,1-.28.51,1,1,0,0,1-.65.23,1,1,0,0,1-.64-.23A.66.66,0,0,1,647.64,623.3Z" transform="translate(-108 -375.76)"/><path d="M669.25,618.85v-3.18a5,5,0,0,1,1.59-3.67,5.48,5.48,0,0,1,7.56-.07,4.85,4.85,0,0,1,1.57,3.69,3.64,3.64,0,0,1-.18,1.27,1.19,1.19,0,0,1-.59.68,2.86,2.86,0,0,1-.75.25,6,6,0,0,1-.94.06h-6.41v1a3.31,3.31,0,0,0,1.21,2.68,4.68,4.68,0,0,0,3.1,1,4.62,4.62,0,0,0,1.69-.28,4.88,4.88,0,0,0,1.1-.57,1.17,1.17,0,0,1,.61-.28.7.7,0,0,1,.55.3.93.93,0,0,1,.24.58q0,.6-1.22,1.23a7.35,7.35,0,0,1-7.43-.85A4.93,4.93,0,0,1,669.25,618.85Zm1.84-2.33h5.67a2.36,2.36,0,0,0,1.14-.18.87.87,0,0,0,.28-.78,3.51,3.51,0,0,0-1-2.48,3.33,3.33,0,0,0-2.54-1.07,3.45,3.45,0,0,0-2.51,1,3.27,3.27,0,0,0-1,2.42Z" transform="translate(-108 -375.76)"/><path d="M682.74,623.3v-12a.58.58,0,0,1,.26-.5,1.08,1.08,0,0,1,.65-.18.94.94,0,0,1,.6.2.61.61,0,0,1,.25.49v1.32a4.08,4.08,0,0,1,1.47-1.55,4.24,4.24,0,0,1,2.32-.63,4.77,4.77,0,0,1,3.54,1.56,5.2,5.2,0,0,1,1.5,3.74v7.54a.62.62,0,0,1-.28.54,1.1,1.1,0,0,1-.65.2,1.06,1.06,0,0,1-.62-.2.62.62,0,0,1-.28-.54v-7.52a3.52,3.52,0,0,0-1-2.49,3.33,3.33,0,0,0-2.5-1.1,3.28,3.28,0,0,0-2.35,1,3.46,3.46,0,0,0-1,2.6v7.52a.65.65,0,0,1-.28.51,1,1,0,0,1-.65.23.94.94,0,0,1-.65-.23A.67.67,0,0,1,682.74,623.3Z" transform="translate(-108 -375.76)"/><path d="M696.75,619.87V605a.58.58,0,0,1,.28-.48,1.06,1.06,0,0,1,.62-.2,1.11,1.11,0,0,1,.65.2.58.58,0,0,1,.28.48v5.68h3.66a.57.57,0,0,1,.47.23.91.91,0,0,1,0,1.1.57.57,0,0,1-.47.23h-3.66v7.65a2.59,2.59,0,0,0,.58,1.93,3,3,0,0,0,2.06.55H702a.81.81,0,0,1,.61.25.83.83,0,0,1,.24.6.88.88,0,0,1-.24.62.79.79,0,0,1-.61.26h-.79Q696.75,624,696.75,619.87Z" transform="translate(-108 -375.76)"/><path d="M710.81,622.87v-18.4a1,1,0,0,1,.48-.85,2,2,0,0,1,1.13-.31h10.09a1,1,0,0,1,.86.48,2.06,2.06,0,0,1,.3,1.11,2.09,2.09,0,0,1-.31,1.16,1,1,0,0,1-.85.48h-8v5.67h4.31a1,1,0,0,1,.85.44,1.75,1.75,0,0,1,.31,1,1.71,1.71,0,0,1-.3,1,1,1,0,0,1-.86.44H714.5v5.7h8a1,1,0,0,1,.85.48,2.09,2.09,0,0,1,.31,1.16,2.05,2.05,0,0,1-.3,1.1,1,1,0,0,1-.86.48H712.43a2,2,0,0,1-1.13-.31A1,1,0,0,1,710.81,622.87Z" transform="translate(-108 -375.76)"/><path d="M725.93,623.3v-12a.58.58,0,0,1,.25-.5,1.09,1.09,0,0,1,.65-.18.94.94,0,0,1,.59.2.6.6,0,0,1,.25.49v1.32a4.09,4.09,0,0,1,1.47-1.55,4.24,4.24,0,0,1,2.33-.63A4.77,4.77,0,0,1,735,612a5.2,5.2,0,0,1,1.5,3.74v7.54a.62.62,0,0,1-.28.54,1.1,1.1,0,0,1-.65.2,1.07,1.07,0,0,1-.62-.2.62.62,0,0,1-.28-.54v-7.52a3.52,3.52,0,0,0-1-2.49,3.33,3.33,0,0,0-2.49-1.1,3.29,3.29,0,0,0-2.35,1,3.46,3.46,0,0,0-1,2.6v7.52a.65.65,0,0,1-.28.51,1,1,0,0,1-.65.23.94.94,0,0,1-.65-.23A.67.67,0,0,1,725.93,623.3Z" transform="translate(-108 -375.76)"/><path d="M738.4,611.42a.73.73,0,0,1,.36-.6,1.26,1.26,0,0,1,.75-.25.66.66,0,0,1,.68.42l3.74,10.21,3.74-10.09q.23-.54.65-.54a1.38,1.38,0,0,1,.74.25.71.71,0,0,1,.4.57,1,1,0,0,1-.11.45l-4.56,12q-.17.45-.85.45c-.45,0-.74-.15-.85-.45l-4.56-12A.75.75,0,0,1,738.4,611.42Z" transform="translate(-108 -375.76)"/><path d="M751.67,606.3a1.12,1.12,0,0,1-.37-.84,1.08,1.08,0,0,1,.37-.82,1.29,1.29,0,0,1,.91-.34,1.2,1.2,0,0,1,.86.34,1.1,1.1,0,0,1,.35.82,1.14,1.14,0,0,1-.35.84,1.17,1.17,0,0,1-.86.35A1.25,1.25,0,0,1,751.67,606.3Zm0,17v-12a.6.6,0,0,1,.26-.48,1,1,0,0,1,.65-.2,1.1,1.1,0,0,1,.67.2.59.59,0,0,1,.27.48v12a.65.65,0,0,1-.28.51,1,1,0,0,1-.65.23,1,1,0,0,1-.64-.23A.66.66,0,0,1,751.67,623.3Z" transform="translate(-108 -375.76)"/><path d="M757.09,623.3v-12a.6.6,0,0,1,.25-.48,1,1,0,0,1,.65-.2,1,1,0,0,1,.62.2.6.6,0,0,1,.26.49v1.41a4.48,4.48,0,0,1,1.5-1.61,4.06,4.06,0,0,1,2.3-.66h1a.67.67,0,0,1,.51.26.92.92,0,0,1,0,1.21.67.67,0,0,1-.51.26h-1a3.57,3.57,0,0,0-2.61,1.15,4.06,4.06,0,0,0-1.13,3v7a.65.65,0,0,1-.27.51,1,1,0,0,1-.66.23,1,1,0,0,1-.64-.23A.66.66,0,0,1,757.09,623.3Z" transform="translate(-108 -375.76)"/><path d="M765.42,618.85v-3.09A5.07,5.07,0,0,1,767,612a5.17,5.17,0,0,1,3.77-1.57,5.3,5.3,0,0,1,3.8,1.56,5,5,0,0,1,1.62,3.74v3.09a5.39,5.39,0,0,1-10.77,0Zm1.84,0a3.64,3.64,0,0,0,1,2.55,3.27,3.27,0,0,0,2.48,1.11,3.35,3.35,0,0,0,2.52-1.11,3.62,3.62,0,0,0,1-2.55v-3.07a3.48,3.48,0,0,0-1.06-2.48,3.38,3.38,0,0,0-2.51-1.1,3.29,3.29,0,0,0-2.48,1.1,3.52,3.52,0,0,0-1,2.48Z" transform="translate(-108 -375.76)"/><path d="M779.23,623.3v-12a.58.58,0,0,1,.25-.5,1.09,1.09,0,0,1,.65-.18.94.94,0,0,1,.59.2.6.6,0,0,1,.25.49v1.32a4.09,4.09,0,0,1,1.47-1.55,4.24,4.24,0,0,1,2.33-.63,4.77,4.77,0,0,1,3.54,1.56,5.2,5.2,0,0,1,1.5,3.74v7.54a.62.62,0,0,1-.28.54,1.1,1.1,0,0,1-.65.2,1.07,1.07,0,0,1-.62-.2.62.62,0,0,1-.28-.54v-7.52a3.52,3.52,0,0,0-1-2.49,3.33,3.33,0,0,0-2.49-1.1,3.29,3.29,0,0,0-2.35,1,3.46,3.46,0,0,0-1,2.6v7.52a.65.65,0,0,1-.28.51,1,1,0,0,1-.65.23.94.94,0,0,1-.65-.23A.67.67,0,0,1,779.23,623.3Z" transform="translate(-108 -375.76)"/><path d="M793.29,623.3v-12a.6.6,0,0,1,.25-.48,1,1,0,0,1,.65-.2,1,1,0,0,1,.62.2.61.61,0,0,1,.26.49v1.32a4.19,4.19,0,0,1,3.77-2.18,4,4,0,0,1,2.44.79,4.62,4.62,0,0,1,1.59,2.07,5.23,5.23,0,0,1,1.87-2.13,4.53,4.53,0,0,1,5.78.72,5.27,5.27,0,0,1,1.42,3.86v7.54a.66.66,0,0,1-.27.51,1,1,0,0,1-.67.23,1,1,0,0,1-.64-.23.65.65,0,0,1-.27-.51v-7.52a3.51,3.51,0,0,0-1-2.63,3.12,3.12,0,0,0-2.25-1,3.23,3.23,0,0,0-2.31,1,3.34,3.34,0,0,0-1,2.5v7.67q0,.71-.93.71c-.61,0-.91-.24-.91-.71v-7.64a3.5,3.5,0,0,0-1-2.5,3,3,0,0,0-2.28-1,3.25,3.25,0,0,0-2.34,1,3.47,3.47,0,0,0-1,2.62v7.52a.65.65,0,0,1-.28.51,1,1,0,0,1-.65.23,1,1,0,0,1-.64-.23A.66.66,0,0,1,793.29,623.3Z" transform="translate(-108 -375.76)"/><path d="M814.9,618.85v-3.18a5,5,0,0,1,1.59-3.67,5.48,5.48,0,0,1,7.56-.07,4.85,4.85,0,0,1,1.57,3.69,3.67,3.67,0,0,1-.18,1.27,1.19,1.19,0,0,1-.6.68,2.86,2.86,0,0,1-.75.25,5.94,5.94,0,0,1-.94.06h-6.41v1a3.31,3.31,0,0,0,1.21,2.68,4.68,4.68,0,0,0,3.11,1,4.61,4.61,0,0,0,1.69-.28,4.9,4.9,0,0,0,1.11-.57,1.16,1.16,0,0,1,.61-.28.7.7,0,0,1,.55.3.94.94,0,0,1,.24.58q0,.6-1.22,1.23a6.5,6.5,0,0,1-3,.64,6.43,6.43,0,0,1-4.39-1.49A4.94,4.94,0,0,1,814.9,618.85Zm1.84-2.33h5.67a2.36,2.36,0,0,0,1.14-.18.87.87,0,0,0,.28-.78,3.51,3.51,0,0,0-1-2.48,3.34,3.34,0,0,0-2.54-1.07,3.45,3.45,0,0,0-2.51,1,3.27,3.27,0,0,0-1,2.42Z" transform="translate(-108 -375.76)"/><path d="M828.39,623.3v-12a.58.58,0,0,1,.26-.5,1.09,1.09,0,0,1,.65-.18.94.94,0,0,1,.6.2.61.61,0,0,1,.26.49v1.32a4.08,4.08,0,0,1,1.47-1.55,4.24,4.24,0,0,1,2.32-.63A4.77,4.77,0,0,1,837.5,612a5.21,5.21,0,0,1,1.5,3.74v7.54a.62.62,0,0,1-.28.54,1.11,1.11,0,0,1-.65.2,1.07,1.07,0,0,1-.62-.2.62.62,0,0,1-.28-.54v-7.52a3.52,3.52,0,0,0-1-2.49,3.33,3.33,0,0,0-2.5-1.1,3.28,3.28,0,0,0-2.35,1,3.46,3.46,0,0,0-1,2.6v7.52a.65.65,0,0,1-.28.51,1,1,0,0,1-.65.23.94.94,0,0,1-.65-.23A.67.67,0,0,1,828.39,623.3Z" transform="translate(-108 -375.76)"/><path d="M842.4,619.87V605a.58.58,0,0,1,.28-.48,1.07,1.07,0,0,1,.62-.2,1.12,1.12,0,0,1,.65.2.58.58,0,0,1,.28.48v5.68h3.66a.58.58,0,0,1,.47.23.91.91,0,0,1,0,1.1.58.58,0,0,1-.47.23h-3.66v7.65a2.59,2.59,0,0,0,.58,1.93,3,3,0,0,0,2.05.55h.79a.82.82,0,0,1,.61.25.84.84,0,0,1,.24.6.89.89,0,0,1-.24.62.79.79,0,0,1-.61.26h-.79Q842.4,624,842.4,619.87Z" transform="translate(-108 -375.76)"/><path class="cls-1" d="M269.84,389.65l-113,15.89c-19.87,2.79-36.08,22.52-36.12,44l-.22,120.08c0,16.56,9.58,29.37,23.11,33.08a31.77,31.77,0,0,0,12.87.76l113-15.89c19.88-2.79,36.08-22.51,36.12-44l.22-120.08A37.47,37.47,0,0,0,301.7,406,30.4,30.4,0,0,0,269.84,389.65ZM188.28,583.93a15.09,15.09,0,0,1-9.45,5.46h0a11,11,0,0,1-11.09-4.79,13.86,13.86,0,0,1-2.16-7.66h0a17.1,17.1,0,0,1,3.86-10.73l53-64.51,6-7.31-3.94-3.71-46.3-43.55-8.51-8c-5.09-4.78-5.08-14.15,0-20.38a15.08,15.08,0,0,1,9.44-5.46h0a11.28,11.28,0,0,1,9.43,2.81L238,462.58l10.25,9.64,8.51,8c5.09,4.79,5.08,14.14,0,20.38l-59.9,72.93ZM271,576.27l-10.55,1.48-5.93.83L238,580.9c-6.95,1-12.57-4.31-12.55-11.81s5.66-14.37,12.6-15.34l22.41-3.15L271,549.12c6.94-1,12.56,4.31,12.55,11.81S277.9,575.29,271,576.27Z" transform="translate(-108 -375.76)"/><path d="M256.76,480.22l-8.51-8L238,462.58a92.75,92.75,0,0,0-13.53,28.11l3.94,3.71-6,7.31-53,64.51a17.1,17.1,0,0,0-3.86,10.73h0a13.86,13.86,0,0,0,2.16,7.66,11,11,0,0,0,11.09,4.79h0a15.09,15.09,0,0,0,9.45-5.46l8.54-10.4,59.9-72.93C261.85,494.37,261.85,485,256.76,480.22Z" transform="translate(-108 -375.76)"/><path class="cls-2" d="M188.59,416.09a11.28,11.28,0,0,0-9.43-2.81h0a15.08,15.08,0,0,0-9.44,5.46c-5.11,6.22-5.13,15.6,0,20.38l8.51,8,47,44.24a92.75,92.75,0,0,1,13.53-28.11Z" transform="translate(-108 -375.76)"/><path class="cls-2" d="M120.46,569.59l.22-120.08c0-21.45,16.25-41.18,36.12-44l113-15.89A30.4,30.4,0,0,1,301.7,406c4.45-2.75,8.38-5,11.55-6.8-7.92-16.1-24.38-25.65-43.39-23l-113,15.89c-26.75,3.76-48.55,30.3-48.6,59.17L108,571.34c0,18.09,8.79,33,21.72,40.62,3.86-2.35,8.7-5.42,14.15-9.12C130.35,599.14,120.43,586.15,120.46,569.59Z" transform="translate(-108 -375.76)"/><path d="M313.1,398.85c-3.17,1.77-7.1,4-11.55,6.8a38.91,38.91,0,0,1,4.27,17.83l-.22,120.08c0,21.46-16.24,41.18-36.12,44l-113,15.89a31.77,31.77,0,0,1-12.87-.76c-5.45,3.7-10.29,6.77-14.15,9.12a41.38,41.38,0,0,0,27,5.09l113-15.89c26.75-3.76,48.55-30.31,48.61-59.18l.22-120.08A52.2,52.2,0,0,0,313.1,398.85Z" transform="translate(-108 -375.76)"/><path d="M271,549.12l-10.55,1.48-22.41,3.15c-6.94,1-12.59,7.85-12.6,15.34s5.61,12.78,12.55,11.81l16.48-2.32,5.93-.83L271,576.27c6.94-1,12.59-7.85,12.6-15.34S278,548.14,271,549.12Z" transform="translate(-108 -375.76)"/><path class="cls-1" d="M623.69,417.42H595.52V553.66h28.17q28.44,0,28.44-31.15V448.57Q652.13,417.42,623.69,417.42Z" transform="translate(-108 -375.76)"/><path d="M473,397.64l0-.1s0-.07,0-.1h0a19.8,19.8,0,0,0-2.42-6.28,9.13,9.13,0,0,0-8.26-4.62H347.68a10.39,10.39,0,0,0-5.44,1.62h0l-.18.14-.11.07h0a10,10,0,0,0-2.51,2.8,20,20,0,0,0-2.84,10.69,19.56,19.56,0,0,0,3,11.08,9.27,9.27,0,0,0,8.13,4.49H387.5v156q0,5.17,5.15,8.17a27.16,27.16,0,0,0,24.78,0q5.28-3,5.28-8.17v-156h39.55a9.22,9.22,0,0,0,8.13-4.62,19.77,19.77,0,0,0,3-11,22.89,22.89,0,0,0-.39-4.21Z" transform="translate(-108 -375.76)"/><path d="M522.66,389.25a30,30,0,0,0-24.92,0q-5.15,2.71-5.15,8.13V573.44q0,5.15,5.15,8.13a27.26,27.26,0,0,0,24.78,0q5.28-3,5.28-8.13V397.38Q527.8,392,522.66,389.25Z" transform="translate(-108 -375.76)"/><path d="M670,401.44c-1.3-1.12-2.94-2.36-4.38-3.39h0l-.16-.1-.19-.14h0q-16.4-11.26-41.59-11.27H575.75q-6.77,0-11.11,3.25t-4.33,7.58V573.71q0,4.34,4.33,7.58t11.11,3.25h47.94q29,0,46.32-14.9t17.33-47.13V448.57Q687.34,416.34,670,401.44ZM652.13,522.51q0,31.15-28.44,31.15H595.52V417.42h28.17q28.44,0,28.44,31.15Z" transform="translate(-108 -375.76)"/><path d="M829.27,553.66H752.62V499.22h41.17A9.35,9.35,0,0,0,802,495a16.29,16.29,0,0,0,2.84-9.35,16.66,16.66,0,0,0-3-9.89,9.46,9.46,0,0,0-8.13-4.2H752.62V417.42h76.65a9.23,9.23,0,0,0,8.13-4.6,20,20,0,0,0,3-11.11,19.71,19.71,0,0,0-2.84-10.56,12.55,12.55,0,0,0-2.73-2.92h.05c-.09-.06-.18-.11-.27-.16l-.2-.15h0a9.45,9.45,0,0,0-5.07-1.37H732.84a19.5,19.5,0,0,0-10.83,3,9.31,9.31,0,0,0-4.42,6.29h0l0,.13,0,.08h0a12.28,12.28,0,0,0-.14,1.62V573.44a9.22,9.22,0,0,0,4.61,8.13,19.47,19.47,0,0,0,10.83,3h96.43a9.13,9.13,0,0,0,8.26-4.61,19.69,19.69,0,0,0,2.84-10.56,20,20,0,0,0-3-11.11A9.24,9.24,0,0,0,829.27,553.66Z" transform="translate(-108 -375.76)"/></g></svg>